<?xml version="1.0" encoding="UTF-8" standalone="no"?>
<!-- Created with Inkscape (http://www.inkscape.org/) -->

<svg
   version="1.1"
   id="svg1"
   width="420mm"
   height="240mm"
   viewBox="0 0 1587.4016 907.08654"
   sodipodi:docname="logo.svg"
   inkscape:version="1.4.2 (1:1.4.2+202505120737+ebf0e940d0)"
   xmlns:inkscape="http://www.inkscape.org/namespaces/inkscape"
   xmlns:sodipodi="http://sodipodi.sourceforge.net/DTD/sodipodi-0.dtd"
   xmlns:xlink="http://www.w3.org/1999/xlink"
   xmlns="http://www.w3.org/2000/svg"
   xmlns:svg="http://www.w3.org/2000/svg">
  <defs
     id="defs1">
    <linearGradient
       id="linearGradient20"
       inkscape:collect="always">
      <stop
         style="stop-color:#0299e7;stop-opacity:1;"
         offset="0"
         id="stop20" />
      <stop
         style="stop-color:#5c2ae1;stop-opacity:1;"
         offset="0.36109975"
         id="stop22" />
      <stop
         style="stop-color:#ed06f2;stop-opacity:1;"
         offset="1"
         id="stop21" />
    </linearGradient>
    <linearGradient
       id="linearGradient15">
      <stop
         style="stop-color:#fe6700;stop-opacity:0.76998973;"
         offset="0"
         id="stop19" />
      <stop
         style="stop-color:#c10008;stop-opacity:0.9388088;"
         offset="0.4480584"
         id="stop23" />
      <stop
         style="stop-color:#ff0027;stop-opacity:0.70285171;"
         offset="1"
         id="stop18" />
    </linearGradient>
    <rect
       x="-303.7085"
       y="1062.1589"
       width="236.40013"
       height="142.82507"
       id="rect12" />
    <linearGradient
       inkscape:collect="always"
       xlink:href="#linearGradient15"
       id="linearGradient16"
       x1="-1956.9377"
       y1="474.20322"
       x2="-1968.5652"
       y2="252.33885"
       gradientUnits="userSpaceOnUse"
       gradientTransform="translate(-7.0563376,87.718702)" />
    <linearGradient
       inkscape:collect="always"
       xlink:href="#linearGradient20"
       id="linearGradient21"
       x1="-1969.8079"
       y1="628.27814"
       x2="-1969.8079"
       y2="273.70135"
       gradientUnits="userSpaceOnUse" />
  </defs>
  <sodipodi:namedview
     id="namedview1"
     pagecolor="#505050"
     bordercolor="#eeeeee"
     borderopacity="1"
     inkscape:showpageshadow="0"
     inkscape:pageopacity="0"
     inkscape:pagecheckerboard="0"
     inkscape:deskcolor="#d1d1d1"
     showgrid="false"
     inkscape:zoom="0.60913671"
     inkscape:cx="-115.73757"
     inkscape:cy="305.35017"
     inkscape:window-width="4960"
     inkscape:window-height="2124"
     inkscape:window-x="160"
     inkscape:window-y="0"
     inkscape:window-maximized="1"
     inkscape:current-layer="g1"
     showguides="true"
     inkscape:document-units="mm">
    <sodipodi:guide
       position="359.79924,-554.53057"
       orientation="0,-1"
       id="guide1"
       inkscape:locked="false" />
    <sodipodi:guide
       position="-1021.1172,387.99267"
       orientation="0,-1"
       id="guide9"
       inkscape:locked="false" />
    <sodipodi:guide
       position="200.71387,-279.33658"
       orientation="0,-1"
       id="guide10"
       inkscape:locked="false" />
    <sodipodi:guide
       position="170.68829,-266.07198"
       orientation="1,0"
       id="guide11"
       inkscape:locked="false" />
    <sodipodi:guide
       position="420.67014,-271.24038"
       orientation="1,0"
       id="guide12"
       inkscape:locked="false" />
  </sodipodi:namedview>
  <g
     inkscape:groupmode="layer"
     inkscape:label="Lava Lamp MHL - Logo"
     id="g1">
    <g
       id="g4"
       inkscape:export-filename="g4.webp"
       inkscape:export-xdpi="29.889999"
       inkscape:export-ydpi="29.889999"
       transform="matrix(1.1227462,0,0,1.1227462,-835.70195,-476.1381)">
      <path
         id="rect14"
         style="display:inline;fill:none;stroke:#9a1420;stroke-width:12;stroke-miterlimit:1"
         inkscape:label="Frame"
         d="M 896.61299,434.42776 H 2007.1689 c 78.049,0 140.8827,62.83369 140.8827,140.88271 v 509.22103 c 0,78.049 -62.8337,140.8827 -140.8827,140.8827 H 896.61299 c -78.04902,0 -140.8827,-62.8337 -140.8827,-140.8827 V 575.31047 c 0,-78.04902 62.83368,-140.88271 140.8827,-140.88271 z" />
      <g
         id="g15"
         transform="translate(3117.2306,472.54462)"
         style="display:inline;fill:#cb1420;fill-opacity:1"
         inkscape:label="Texts">
        <g
           id="g14"
           transform="translate(-162.20264,-589.35867)"
           inkscape:label="Author"
           style="fill:#9a1420;fill-opacity:1">
          <path
             d="m 798.65885,1422.0935 -4.27516,19.551 h 4.84865 l 0.41709,-2.6589 h 3.54525 l 0.44315,2.6589 h 4.84865 l -4.43156,-19.551 z m 1.74655,12.4605 0.99059,-6.0477 1.04272,6.0477 z m 17.04845,-4.249 -8.18535,-9.1238 v 20.4633 h 4.69224 v -8.2114 l 8.18535,9.1238 v -20.4634 h -4.69224 z m 6.51698,11.3395 h 4.69224 v -19.551 h -4.69224 z m 19.16,-19.551 -4.17088,7.7683 -4.17088,-7.7683 h -3.64952 l -0.78204,19.551 h 4.69224 l 0.0782,-9.5409 3.83199,7.664 3.832,-7.7161 0.0782,9.593 h 4.69224 l -0.78204,-19.551 z m 9.3584,0 -4.27515,19.551 h 4.84865 l 0.41709,-2.6589 h 3.54524 l 0.44316,2.6589 h 4.84865 l -4.43156,-19.551 z m 1.74656,12.4605 0.99058,-6.0477 1.04272,6.0477 z m 7.03835,-7.7682 h 3.59738 v 14.8587 h 4.69224 v -14.8587 h 4.06661 v -4.6923 h -12.35623 z m 13.65963,14.8587 h 9.98405 v -4.6922 h -5.29181 v -3.3367 h 4.58797 v -4.4316 h -4.58797 v -2.3982 h 5.29181 v -4.6923 h -9.98405 z m 13.89422,-19.551 h -2.34612 v 19.551 h 2.34612 c 6.04777,0 10.27079,-3.5713 10.27079,-9.7755 0,-6.2042 -4.22302,-9.7755 -10.27079,-9.7755 z m 2.34612,14.572 v -9.593 c 2.16364,0.6257 3.23243,2.2419 3.23243,4.7965 0,2.5547 -1.06879,4.1709 -3.23243,4.7965 z m 24.29537,-6.9601 c -1.72049,-0.9906 -2.0333,-1.3034 -2.0333,-2.0855 0,-0.9123 0.96451,-1.3555 1.82476,-1.3555 1.72049,0 2.91961,0.6517 3.64952,1.1991 v -5.2657 c -1.14699,-0.4171 -2.37219,-0.6256 -3.64952,-0.6256 -3.54525,0 -6.517,2.3461 -6.517,6.0477 0,3.1543 1.85083,4.7705 4.40549,6.1521 1.69442,0.9906 2.13758,1.4859 2.13758,2.294 0,0.9124 -0.75598,1.4077 -1.77263,1.4077 -1.64228,0 -3.07602,-0.6517 -4.35335,-1.6163 v 5.4222 c 1.40767,0.5735 2.86748,0.8863 4.35335,0.8863 3.46705,0 6.46487,-2.5807 6.46487,-6.0999 0,-3.2585 -1.92904,-4.8747 -4.50977,-6.3606 z m 8.15926,-7.6119 h -2.34612 v 19.551 h 2.34612 c 6.04778,0 10.27079,-3.5713 10.27079,-9.7755 0,-6.2042 -4.22301,-9.7755 -10.27079,-9.7755 z m 2.34612,14.572 v -9.593 c 2.16364,0.6257 3.23243,2.2419 3.23243,4.7965 0,2.5547 -1.06879,4.1709 -3.23243,4.7965 z m 11.5742,-14.572 h -2.34612 v 19.551 h 2.34612 c 6.04777,0 10.27079,-3.5713 10.27079,-9.7755 0,-6.2042 -4.22302,-9.7755 -10.27079,-9.7755 z m 2.34612,14.572 v -9.593 c 2.16364,0.6257 3.23243,2.2419 3.23243,4.7965 0,2.5547 -1.06879,4.1709 -3.23243,4.7965 z m 21.74072,-14.572 -4.17088,7.7683 -4.17088,-7.7683 h -3.64952 l -0.78204,19.551 h 4.69224 l 0.0782,-9.5409 3.832,7.664 3.83199,-7.7161 0.0782,9.593 h 4.69224 l -0.78204,-19.551 z m 14.0767,4.6923 h 3.59738 v 14.8587 h 4.69224 v -14.8587 h 4.06661 v -4.6923 H 975.7126 Z m 21.32363,1.3294 h -2.97176 v -6.0217 h -4.69224 v 19.551 h 4.69224 v -9.0977 h 2.97176 v 9.0977 h 4.69227 v -19.551 h -4.69227 z m 6.51697,13.5293 h 9.9841 v -4.6922 h -5.2918 v -3.3367 h 4.5879 v -4.4316 h -4.5879 v -2.3982 h 5.2918 v -4.6923 h -9.9841 z m 24.1911,-19.551 -4.1708,7.7683 -4.1709,-7.7683 h -3.6495 l -0.7821,19.551 h 4.6923 l 0.078,-9.5409 3.832,7.664 3.832,-7.7161 0.078,9.593 h 4.6922 l -0.782,-19.551 z m 6.126,19.551 h 9.9841 v -4.6922 h -5.2918 v -3.3367 h 4.5879 v -4.4316 h -4.5879 v -2.3982 h 5.2918 v -4.6923 h -9.9841 z"
             id="text12"
             style="font-size:26.068px;font-family:Shawkind;-inkscape-font-specification:Shawkind;text-align:justify;stroke-width:3.69469;stroke-miterlimit:1;stroke-dasharray:3.69469, 3.69469"
             inkscape:label="Animated SDDM Theme"
             transform="matrix(1.9307795,0,0,1.3847271,-3038.7798,-777.94796)"
             aria-label="Animated SDDM THEME" />
          <path
             d="m -1272.2831,1381.1289 c 0.8862,-0.9474 1.4058,-2.2615 1.4058,-3.9118 0,-4.2479 -3.3617,-7.0901 -7.4874,-7.0901 h -5.9288 v 22.9206 h 6.9373 c 4.1257,0 7.5485,-2.8421 7.5485,-7.0901 0,-1.9865 -0.8252,-3.6979 -2.4754,-4.8286 z m -6.5095,-5.5009 h 0.4279 c 0.9473,0 1.9864,0.5195 1.9864,1.8947 0,1.3753 -1.1002,1.9254 -1.9864,1.9254 h -0.4279 z m 0.9474,11.9187 h -0.9474 v -3.8201 h 1.1308 c 1.1918,0 2.3531,0.4584 2.3531,1.9253 0,1.4364 -1.1918,1.8948 -2.5365,1.8948 z m 22.4316,-17.4197 h -5.8676 l -1.4669,8.282 -1.4975,-8.282 h -5.8677 l 4.4924,14.6692 v 8.2514 h 5.501 v -7.5791 z m 26.2823,0 -4.8897,9.1071 -4.8897,-9.1071 h -4.2785 l -0.9169,22.9206 h 5.501 l 0.092,-11.1852 4.4924,8.9848 4.4924,-9.046 0.092,11.2464 h 5.501 l -0.9169,-22.9206 z m 10.9713,0 -5.0119,22.9206 h 5.6843 l 0.489,-3.1172 h 4.1562 l 0.5196,3.1172 h 5.6843 l -5.1954,-22.9206 z m 2.0476,14.6081 1.1613,-7.0901 1.2225,7.0901 z m 21.2397,0.9474 c 2.8728,-1.9559 3.6368,-5.2259 3.6368,-6.9373 0,-4.1563 -3.5145,-8.5876 -9.6572,-8.5876 l -4.8286,-0.061 v 22.9512 h 5.5009 v -5.6537 l 3.1478,5.6537 h 6.2955 z m -5.3481,-3.2701 v -6.7233 c 1.7725,0.1833 3.4839,1.1307 3.4839,3.3617 0,2.2309 -1.7114,3.1783 -3.4839,3.3616 z m 10.3601,-0.8251 c 0,6.54 5.3176,11.7659 11.7659,11.7659 2.5977,0 4.4313,-0.8557 4.4313,-0.8557 v -6.2038 c 0,0 -1.1613,1.5586 -4.4313,1.5586 -3.4534,0 -6.265,-2.8116 -6.265,-6.265 0,-3.4534 2.8116,-6.265 6.265,-6.265 3.27,0 4.4313,1.5586 4.4313,1.5586 v -6.2038 c 0,0 -1.8336,-0.8557 -4.4313,-0.8557 -6.54,0 -11.7659,5.3176 -11.7659,11.7659 z m 18.1837,11.4603 h 5.5009 v -22.9206 h -5.5009 z m 17.2363,-13.2939 -9.5961,-10.6963 v 23.9902 h 5.5009 v -9.6266 l 9.5961,10.6962 v -23.9902 h -5.5009 z m 28.5743,-9.9323 c -6.5706,0 -11.7659,5.287 -11.7659,11.7659 0,6.5706 5.287,11.7659 11.7659,11.7659 6.5095,0 11.7659,-5.3481 11.7659,-11.7659 0,-6.4178 -5.2564,-11.7659 -11.7659,-11.7659 z m 0,18.0309 c -3.4534,0 -6.265,-2.8116 -6.265,-6.265 0,-3.4534 2.8116,-6.265 6.265,-6.265 3.4534,0 6.265,2.8116 6.265,6.265 0,3.4534 -2.8116,6.265 -6.265,6.265 z m 24.143,-2.1698 c 2.8727,-1.9559 3.6368,-5.2259 3.6368,-6.9373 0,-4.1563 -3.5145,-8.5876 -9.6573,-8.5876 l -4.8286,-0.061 v 22.9512 h 5.501 v -5.6537 l 3.1477,5.6537 h 6.2956 z m -5.3481,-3.2701 v -6.7233 c 1.7725,0.1833 3.4839,1.1307 3.4839,3.3617 0,2.2309 -1.7114,3.1783 -3.4839,3.3616 z m 16.3195,-12.2854 h -5.501 v 22.9206 h 11.7048 v -5.5009 h -6.2038 z m 17.9697,-0.3056 c -6.5706,0 -11.7659,5.287 -11.7659,11.7659 0,6.5706 5.287,11.7659 11.7659,11.7659 6.5094,0 11.7659,-5.3481 11.7659,-11.7659 0,-6.4178 -5.2565,-11.7659 -11.7659,-11.7659 z m 0,18.0309 c -3.4534,0 -6.265,-2.8116 -6.265,-6.265 0,-3.4534 2.8116,-6.265 6.265,-6.265 3.4534,0 6.265,2.8116 6.265,6.265 0,3.4534 -2.8116,6.265 -6.265,6.265 z m 29.155,-4.1563 -2.8727,-13.569 h -3.9423 l -2.8728,13.569 -1.4058,-13.569 h -5.6843 l 3.6673,22.9206 h 6.3261 l 1.9253,-11.338 1.9559,11.338 h 6.2956 l 3.6978,-22.9206 h -5.6843 z m 15.8916,-4.6452 c -2.017,-1.1613 -2.3837,-1.5281 -2.3837,-2.4449 0,-1.0696 1.1307,-1.5892 2.1392,-1.5892 2.017,0 3.4228,0.7641 4.2785,1.4058 v -6.1732 c -1.3446,-0.489 -2.781,-0.7335 -4.2785,-0.7335 -4.1562,0 -7.6402,2.7505 -7.6402,7.0901 0,3.6979 2.1698,5.5926 5.1648,7.2123 1.9865,1.1614 2.506,1.742 2.506,2.6894 0,1.0696 -0.8863,1.6503 -2.0781,1.6503 -1.9254,0 -3.6062,-0.764 -5.1037,-1.8948 v 6.3567 c 1.6503,0.6723 3.3617,1.039 5.1037,1.039 4.0645,0 7.579,-3.0255 7.579,-7.1512 0,-3.8201 -2.2615,-5.7149 -5.287,-7.4568 z m 21.5148,-8.9238 h -5.8677 l -3.3311,9.046 v -9.046 h -5.501 v 22.9206 h 5.501 v -9.046 l 3.3311,9.046 h 5.8677 l -4.248,-11.4603 z m 1.3752,22.9206 h 5.50099 v -22.9206 h -5.50099 z"
             id="text12-0"
             style="font-size:30.5608px;font-family:Shawkind;-inkscape-font-specification:Shawkind;text-align:justify;stroke-width:4.33147;stroke-miterlimit:1;stroke-dasharray:4.33147, 4.33147"
             inkscape:label="by Marcin Orlowski"
             transform="scale(1.1071487,0.90322102)"
             aria-label="By Marcin Orlowski" />
        </g>
        <g
           id="g2"
           transform="matrix(1.6351155,0,0,1.6351155,-3038.7798,-777.94796)"
           inkscape:label="Labels"
           style="fill:#9a1420;fill-opacity:1">
          <g
             id="g12"
             transform="translate(0.57567)"
             inkscape:label="MHL"
             style="fill:#9a1420;fill-opacity:1">
            <path
               id="path12"
               style="stroke-width:1.13386;stroke-miterlimit:1;stroke-dasharray:1.13386, 1.13386"
               inkscape:label="dot-left"
               d="m 906.61189,771.99158 a 6.8199015,6.8199015 0 0 1 -6.8199,6.8199 6.8199015,6.8199015 0 0 1 -6.8199,-6.8199 6.8199015,6.8199015 0 0 1 6.8199,-6.8199 6.8199015,6.8199015 0 0 1 6.8199,6.8199 z" />
            <path
               d="m 962.31219,746.06737 -11.06099,20.6011 -11.06099,-20.6011 h -9.67837 l -2.07394,51.8484 h 12.44362 l 0.20739,-25.30202 10.16229,20.32457 10.16229,-20.46283 0.20739,25.44028 h 12.44362 l -2.07394,-51.8484 z m 36.57043,15.96931 h -7.88095 v -15.96931 h -12.44362 v 51.8484 h 12.44362 v -24.12679 h 7.88095 v 24.12679 h 12.44358 v -51.8484 h -12.44358 z m 29.72648,-15.96931 h -12.4436 v 51.8484 h 26.4772 v -12.44362 h -14.0336 z"
               id="text1-0"
               style="font-size:69.1312px;font-family:Shawkind;-inkscape-font-specification:Shawkind;text-align:justify;stroke-width:9.79815;stroke-miterlimit:1;stroke-dasharray:9.79815, 9.79815"
               inkscape:label="MHL"
               transform="translate(2.76e-6)"
               aria-label="MHL" />
            <path
               id="path12-6"
               style="stroke-width:1.13386;stroke-miterlimit:1;stroke-dasharray:1.13386, 1.13386"
               inkscape:label="dot-right"
               d="m 1078.1086,771.99158 a 6.8199015,6.8199015 0 0 1 -6.8199,6.8199 6.8199015,6.8199015 0 0 1 -6.8199,-6.8199 6.8199015,6.8199015 0 0 1 6.8199,-6.8199 6.8199015,6.8199015 0 0 1 6.8199,6.8199 z" />
          </g>
          <path
             d="m 852.74357,624.72961 h -26.48322 v 110.34674 h 56.35041 v -26.48321 h -29.86719 z m 57.67443,0 -24.12916,110.34674 h 27.366 l 2.35406,-15.00715 h 20.00954 l 2.5012,15.00715 h 27.36599 L 940.8737,624.72961 Z m 9.85764,70.32766 5.5909,-34.13393 5.88516,34.13393 z m 121.38146,-70.32766 -23.5407,43.84444 -23.54062,-43.84444 h -20.59806 l -4.41387,110.34674 h 26.48322 l 0.44139,-53.84921 21.62794,43.25593 21.628,-43.55019 0.4414,54.14347 h 26.4832 l -4.4139,-110.34674 z m 57.9688,0.14713 -23.3935,-0.29426 v 110.49387 h 26.4833 v -24.57054 c 23.982,-1.32416 43.2559,-17.80261 43.2559,-42.81454 0,-26.77747 -21.1866,-42.81453 -46.3457,-42.81453 z m 3.0898,58.99872 v -32.36838 c 8.6806,0.88278 16.7727,5.44378 16.7727,16.18419 0,10.74042 -8.0921,15.30142 -16.7727,16.18419 z"
             id="text1"
             style="font-size:147.129px;font-family:Shawkind;-inkscape-font-specification:Shawkind;text-align:justify;stroke-width:20.853;stroke-miterlimit:1;stroke-dasharray:20.853, 20.853"
             inkscape:label="Lamp"
             aria-label="Lamp" />
          <path
             d="m 870.47288,503.2448 h -26.48322 v 110.34675 h 56.35041 v -26.48322 h -29.86719 z m 57.67443,0 -24.12916,110.34675 h 27.366 l 2.35406,-15.00716 h 20.00954 l 2.5012,15.00716 h 27.36599 L 958.60301,503.2448 Z m 9.85764,70.32767 5.5909,-34.13393 5.88516,34.13393 z m 78.27255,3.82535 -12.6531,-74.15302 h -27.36603 l 25.15903,110.34675 h 30.3086 l 24.2763,-110.34675 h -27.366 z m 56.4973,-74.15302 -24.1292,110.34675 h 27.366 l 2.3541,-15.00716 h 20.0095 l 2.5012,15.00716 h 27.366 L 1103.2305,503.2448 Z m 9.8576,70.32767 5.5909,-34.13393 5.8852,34.13393 z"
             id="text1-9"
             style="font-size:147.129px;font-family:Shawkind;-inkscape-font-specification:Shawkind;text-align:justify;stroke-width:20.853;stroke-miterlimit:1;stroke-dasharray:20.853, 20.853"
             inkscape:label="Lava"
             aria-label="Lava" />
        </g>
      </g>
      <g
         id="g23"
         inkscape:label="Lamp"
         style="display:inline"
         transform="translate(2593.3853,506.12244)">
        <path
           id="path1-4-8"
           style="display:none;fill:#000000;stroke-width:1.12929"
           d="m -1480.0358,112.93522 c -15.7836,0 -18.1058,0.37029 -26.2449,4.18191 -17.8797,8.37321 -28.5884,20.62471 -34.2141,39.14583 -2.5789,8.49066 -2.9929,13.00222 -2.4173,26.37073 1.1696,27.16616 8.4264,43.44406 30.6716,68.79857 18.4947,21.07966 24.5046,37.06676 22.7337,60.48326 -1.6874,22.30997 -10.6841,33.76937 -41.7396,53.16935 -24.7115,15.4369 -38.0391,26.0653 -53.6216,42.7609 -12.7814,13.6945 -19.6689,24.0313 -25.9451,38.9407 -3.5551,8.4455 -3.9799,11.3811 -3.9833,27.5221 0,16.6523 0.3204,18.7271 4.1224,26.4633 9.9769,20.3012 31.2388,33.1643 63.5821,38.4665 15.5267,2.5453 54.0252,1.6326 65.5496,-1.5528 11.9566,-3.3049 34.1106,-14.7436 43.3079,-22.363 16.8519,-13.9607 30.9467,-34.2439 38.1754,-54.9361 10.1974,-29.1899 9.877,-68.4721 -0.8183,-100.3327 -8.1088,-24.15572 -16.2042,-36.90369 -38.3407,-60.37739 -17.4917,-18.54831 -22.754,-28.48803 -22.7336,-42.94395 0.016,-11.76007 3.0065,-18.85658 16.9371,-40.18029 11.335,-17.35079 14.0105,-22.85981 16.3175,-33.61628 2.4634,-11.48654 0.9975,-32.2596 -2.8939,-41.02946 -4.1506,-9.35447 -14.8181,-20.63688 -23.896,-25.27452 -6.4402,-3.29011 -9.1331,-3.69666 -24.5489,-3.69666 z m -87.8862,143.55679 c -9.2792,0.20143 -18.8073,4.19224 -24.0658,11.14294 -11.7683,15.55524 -7.0999,36.15784 10.3158,45.53559 3.2247,1.73635 7.4112,2.28889 14.6322,1.93435 11.1981,-0.54981 15.1015,-2.64549 22.9234,-12.30972 4.1764,-5.16023 4.6031,-6.68975 4.6031,-16.46516 0,-12.7635 -3.6413,-20.05227 -12.9515,-25.92959 -4.4122,-2.78528 -9.8897,-4.02926 -15.4572,-3.90841 z"
           inkscape:label="Lava B&amp;W"
           sodipodi:nodetypes="ssssssssscssssssscsssssssssssss" />
        <g
           id="g22"
           inkscape:label="Lava (Color)"
           transform="translate(465.5661,-120.7938)"
           style="display:inline">
          <path
             id="path1-4-4"
             style="display:none;fill:url(#linearGradient21);stroke-width:1.12929"
             inkscape:label="Lamp BG"
             d="m -2061.252,218.51562 c -3.8684,-0.10806 -7.8639,0.50633 -8.9453,1.92969 -0.7864,1.03519 -3.2945,11.029 -5.5703,22.20899 -106.5459,508.09447 48.0452,-224.426033 -63.4004,304.15625 -9.1871,43.56697 -10.0097,58.92798 -4.4258,82.8164 4.6838,20.03703 14.4675,42.53024 22.1602,50.81836 2.7661,2.98021 0.4007,3.02761 8.3466,3.02761 7.806,0 152.9019,0.0313 229.8233,-0.10769 30.9071,0.0307 54.5617,0.0566 56.5918,0.0566 12.1602,0 9.0594,0.25074 18.4102,-18.41211 15.1912,-30.31899 19.5803,-65.15471 12.3281,-97.8711 -22.3041,-107.71093 -46.2206,-215.10812 -67.75,-322.97851 -5.1988,-26.12749 -4.8912,-25.59571 -14.8594,-25.59571 -4.5237,0 -180.4837,0.0133 -182.709,-0.0488 z"
             sodipodi:nodetypes="ssccssscssccsss" />
          <path
             d="m -1946.1316,237.10281 c -15.7836,0 -18.1058,0.37029 -26.2449,4.18191 -17.8797,8.37321 -28.5884,20.62471 -34.2141,39.14583 -2.5789,8.49066 -2.9929,13.00222 -2.4173,26.37073 1.1696,27.16616 8.4264,43.44406 30.6716,68.79857 18.4947,21.07966 24.5046,37.06676 22.7337,60.48326 -1.6874,22.30997 -10.6841,33.76937 -41.7396,53.16936 -24.7115,15.43688 -38.0391,26.06525 -53.6216,42.76089 -12.7814,13.69445 -19.6689,24.03127 -25.9451,38.9407 -3.5551,8.4455 -3.9799,11.38106 -3.9833,27.52208 0,16.65234 0.3204,18.72715 4.1224,26.46336 9.9769,20.30112 31.2388,33.16429 63.5821,38.4665 15.5267,2.54534 54.0252,1.63264 65.5496,-1.55278 11.9566,-3.30488 34.1106,-14.74363 43.3079,-22.36307 16.8519,-13.96073 30.9467,-34.24386 38.1754,-54.93606 10.1974,-29.18995 9.877,-68.47218 -0.8183,-100.33271 -8.1088,-24.15574 -16.2042,-36.90371 -38.3407,-60.37741 -17.4917,-18.54831 -22.754,-28.48803 -22.7336,-42.94395 0.016,-11.76007 3.0065,-18.85658 16.9371,-40.18029 11.335,-17.35079 14.0105,-22.85981 16.3175,-33.61628 2.4634,-11.48654 0.9975,-32.2596 -2.8939,-41.02946 -4.1506,-9.35447 -14.8181,-20.63688 -23.896,-25.27452 -6.4402,-3.29011 -9.1331,-3.69666 -24.5489,-3.69666 z m -87.8862,143.55679 c -9.2792,0.20143 -18.8073,4.19224 -24.0658,11.14294 -11.7683,15.55524 -7.0999,36.15784 10.3158,45.53559 3.2247,1.73635 7.4112,2.28889 14.6322,1.93435 11.1981,-0.54981 15.1015,-2.64549 22.9234,-12.30972 4.1764,-5.16023 4.6031,-6.68975 4.6031,-16.46516 0,-12.7635 -3.6413,-20.05227 -12.9515,-25.92959 -4.4122,-2.78528 -9.8897,-4.02926 -15.4572,-3.90841 z"
             style="display:inline;fill:url(#linearGradient16);stroke-width:1.12929"
             id="path1-5"
             sodipodi:nodetypes="ssssssssscssssssscsssssssssssss"
             inkscape:label="Blob" />
        </g>
        <path
           id="path1-4-6"
           style="display:inline;fill:#9a1420;fill-opacity:1;stroke-width:1.12929"
           d="m -1503.6634,-5.982694 c -32.337,0.106921 -34.4953,0.298472 -47.4302,4.195149 -24.0822,7.254863 -38.8294,15.658442 -43.5616,24.824563 -2.6547,5.14232 -7.8162,55.975476 -5.8802,57.911486 0.5662,0.56621 44.4451,0.85492 97.5095,0.64185 l 96.4816,-0.386 -0.4433,-15.810079 c -0.5671,-20.206562 -2.951,-38.581334 -5.6906,-43.879158 -4.4213,-8.549799 -20.8283,-17.446268 -44.307,-24.023918 -11.8226,-3.312156 -15.3829,-3.577336 -46.6782,-3.473893 z m -91.4924,102.948608 c -3.8684,-0.10807 -7.8647,0.50658 -8.9461,1.92994 -0.7864,1.03519 -3.2935,11.028676 -5.5693,22.208666 -2.2758,11.17999 -6.4167,31.16917 -9.202,44.41953 -2.7852,13.25036 -7.1039,33.91566 -9.5989,45.9238 -14.5147,69.85618 -39.3143,188.74533 -44.6004,213.81329 -9.1871,43.56697 -10.0086,58.92704 -4.4246,82.81546 4.6838,20.03703 14.485,42.51371 22.1601,50.81812 2.6122,2.8263 4.7102,3.38787 12.6561,3.38787 10.3739,0 11.2119,-0.91076 6.7052,-7.29628 -4.4674,-6.32992 -11.5086,-21.08279 -15.9094,-33.33616 -10.3304,-28.76417 -11.1015,-51.31656 -3.0393,-88.86114 2.9341,-13.66387 6.6141,-31.28063 8.1763,-39.14803 1.5621,-7.86742 5.6284,-27.51634 9.0366,-43.66522 3.408,-16.14887 8.1804,-38.8491 10.6047,-50.44316 2.4242,-11.59406 7.1743,-34.29209 10.5561,-50.44095 3.382,-16.14888 6.7609,-32.41068 7.5081,-36.13735 0.7473,-3.72666 4.1311,-19.98846 7.5212,-36.13733 12.4603,-59.35298 15.4233,-75.13417 14.5375,-77.442486 -0.5638,-1.4693 -4.3036,-2.30055 -8.1719,-2.40857 z m 182.7093,0.0486 c -4.5237,0 -8.6331,0.66137 -9.1336,1.47116 -0.5004,0.80981 2.4652,17.241726 6.5904,36.514506 4.1253,19.27277 10.2081,47.91579 13.5184,63.65058 3.3103,15.7348 8.7398,41.48191 12.0649,57.21671 3.325,15.73479 9.1016,43.17658 12.8369,60.98175 3.7352,17.80516 8.8787,42.19787 11.4319,54.206 2.5531,12.00813 5.9356,28.26994 7.5147,36.13733 1.5789,7.86739 4.5983,22.63956 6.7117,32.82665 7.9348,38.25047 4.3305,65.96932 -13.1589,101.18189 -5.1415,10.35184 -9.5744,19.33118 -9.8504,19.95229 -0.2761,0.62111 4.2525,1.12929 10.0622,1.12929 12.1602,0 12.3417,-0.16015 21.6925,-18.823 15.1912,-30.31899 19.5796,-65.15481 12.3274,-97.8712 -2.2385,-10.09832 -7.7154,-35.98393 -17.2041,-81.309 -2.4272,-11.59408 -9.9007,-47.16674 -16.6063,-79.05042 -6.7057,-31.88366 -12.7991,-61.02013 -13.5405,-64.74679 -0.7414,-3.72666 -3.4362,-16.59911 -5.9884,-28.60725 -8.2199,-38.67275 -10.5924,-50.08057 -14.4094,-69.26396 -5.1988,-26.127486 -4.8912,-25.596536 -14.8594,-25.596536 z m -91.594,479.187996 c -112.4485,-0.30602 -141.1545,0.001 -141.1328,1.50646 0.046,3.20257 8.5627,17.57122 15.2587,25.74432 5.9416,7.2523 12.8822,13.78995 20.711,19.56409 -5.6134,5.25838 -22.3315,22.27014 -30.0519,30.39824 88.9179,0.21078 27.7759,0.20542 117.2919,0.14557 4.936,-0.003 10.06,-0.0247 15.1616,-0.20291 2.1588,0.0245 4.3099,0.0173 6.4538,-0.0199 5.2793,0.19588 10.5901,0.21936 15.6997,0.22277 89.5161,0.0599 28.374,0.0653 117.292,-0.14557 -7.8076,-8.21987 -24.8144,-25.52356 -30.235,-30.57027 l -1.2947,0.007 c 6.1007,-4.42207 11.7945,-9.14009 16.593,-14.39627 9.3295,-10.21926 18.8358,-24.67423 19.2002,-29.19616 0.2047,-2.5396 -6.8083,-2.69199 -140.9475,-3.05703 z"
           inkscape:label="Lamp frame"
           sodipodi:nodetypes="sssscccsssssssssssssssssssscsssssssssscsssssssscsssssccsccscccssss" />
      </g>
    </g>
  </g>
</svg>
